<svg width="48" height="48" viewBox="0 0 48 48" fill="none" xmlns="http://www.w3.org/2000/svg">
<rect x="4" y="4" width="40" height="40" rx="8" fill="#181818"/>
<path d="M10.8414 29.5V17.82H14.3134C15.1027 17.82 15.7854 17.9747 16.3614 18.284C16.948 18.5827 17.4014 19.004 17.7214 19.548C18.0414 20.092 18.2014 20.732 18.2014 21.468V25.836C18.2014 26.572 18.0414 27.2173 17.7214 27.772C17.4014 28.316 16.948 28.7427 16.3614 29.052C15.7854 29.3507 15.1027 29.5 14.3134 29.5H10.8414ZM12.8414 27.708H14.3134C14.8894 27.708 15.348 27.5427 15.6894 27.212C16.0307 26.8707 16.2014 26.412 16.2014 25.836V21.468C16.2014 20.9027 16.0307 20.4547 15.6894 20.124C15.348 19.7827 14.8894 19.612 14.3134 19.612H12.8414V27.708ZM24.0511 29.66C23.2618 29.66 22.5685 29.5213 21.9711 29.244C21.3845 28.9667 20.9258 28.572 20.5951 28.06C20.2751 27.5373 20.1151 26.9187 20.1151 26.204H22.0831C22.0831 26.7267 22.2591 27.1427 22.6111 27.452C22.9738 27.7613 23.4538 27.916 24.0511 27.916C24.6271 27.916 25.0805 27.7667 25.4111 27.468C25.7525 27.1587 25.9231 26.748 25.9231 26.236C25.9231 25.852 25.8111 25.516 25.5871 25.228C25.3738 24.9293 25.0645 24.7267 24.6591 24.62L23.0911 24.22C22.2485 24.0067 21.5818 23.6067 21.0911 23.02C20.6005 22.4333 20.3551 21.7347 20.3551 20.924C20.3551 19.932 20.6805 19.1427 21.3311 18.556C21.9818 17.9587 22.8511 17.66 23.9391 17.66C24.6751 17.66 25.3151 17.7933 25.8591 18.06C26.4138 18.3267 26.8405 18.7053 27.1391 19.196C27.4378 19.676 27.5871 20.2413 27.5871 20.892H25.6351C25.6351 20.444 25.4805 20.0813 25.1711 19.804C24.8618 19.5267 24.4511 19.388 23.9391 19.388C23.4378 19.388 23.0378 19.5267 22.7391 19.804C22.4511 20.0707 22.3071 20.4227 22.3071 20.86C22.3071 21.2227 22.4085 21.5213 22.6111 21.756C22.8245 21.9907 23.1178 22.1613 23.4911 22.268L25.1071 22.668C25.9711 22.8813 26.6485 23.308 27.1391 23.948C27.6405 24.588 27.8911 25.3507 27.8911 26.236C27.8911 26.9293 27.7311 27.532 27.4111 28.044C27.1018 28.556 26.6591 28.956 26.0831 29.244C25.5071 29.5213 24.8298 29.66 24.0511 29.66ZM33.6929 29.66C32.9355 29.66 32.2795 29.5213 31.7249 29.244C31.1702 28.956 30.7382 28.556 30.4289 28.044C30.1302 27.5213 29.9809 26.908 29.9809 26.204V21.116C29.9809 20.412 30.1302 19.804 30.4289 19.292C30.7382 18.7693 31.1702 18.3693 31.7249 18.092C32.2795 17.804 32.9355 17.66 33.6929 17.66C34.4395 17.66 35.0902 17.804 35.6449 18.092C36.1995 18.3693 36.6315 18.7693 36.9409 19.292C37.2502 19.804 37.4049 20.412 37.4049 21.116H35.3889C35.3889 20.572 35.2395 20.156 34.9409 19.868C34.6529 19.5693 34.2369 19.42 33.6929 19.42C33.1489 19.42 32.7275 19.5693 32.4289 19.868C32.1302 20.156 31.9809 20.572 31.9809 21.116V26.204C31.9809 26.748 32.1302 27.1693 32.4289 27.468C32.7275 27.756 33.1489 27.9 33.6929 27.9C34.2369 27.9 34.6529 27.756 34.9409 27.468C35.2395 27.1693 35.3889 26.748 35.3889 26.204H37.4049C37.4049 26.908 37.2502 27.5213 36.9409 28.044C36.6315 28.556 36.1995 28.956 35.6449 29.244C35.0902 29.5213 34.4395 29.66 33.6929 29.66Z" fill="#60D701"/>
</svg>
